PathFileType	4	(X/Y/Z)	Formatted/subject04/trials/walk2/markers.trc
DataRate	CameraRate	NumFrames	NumMarkers	Units	OrigDataRate	OrigDataStartFrame	OrigNumFrames
199.9999999999954	199.9999999999954	4	64	m	199.9999999999954	139	223
Frame#	Time	CLAV			C7			RACR			RASH			RPSH			RLEL			RMEL			RUA1			RUA2			RUA3			RFAsuperior			RFAradius			RFAulna			RASI			RPSI			RCAL			RTOE			RMT5			RTH1			RTH2			RTH3			RTB1			RTB2			RTB3			RLFC			RMFC			RLMAL			RMMAL			RHJC			RKJC			REJC			RAJC			RSJC			LACR			LASH			LPSH			LLEL			LMEL			LUA1			LUA2			LUA3			LFAsuperior			LFAradius			LFAulna			LASI			LPSI			LCAL			LTOE			LMT5			LTH1			LTH2			LTH3			LTB1			LTB2			LTB3			LLFC			LMFC			LLMAL			LMMAL			LHJC			LKJC			LEJC			LAJC			LSJC			
		X1	Y1	Z1	X2	Y2	Z2	X3	Y3	Z3	X4	Y4	Z4	X5	Y5	Z5	X6	Y6	Z6	X7	Y7	Z7	X8	Y8	Z8	X9	Y9	Z9	X10	Y10	Z10	X11	Y11	Z11	X12	Y12	Z12	X13	Y13	Z13	X14	Y14	Z14	X15	Y15	Z15	X16	Y16	Z16	X17	Y17	Z17	X18	Y18	Z18	X19	Y19	Z19	X20	Y20	Z20	X21	Y21	Z21	X22	Y22	Z22	X23	Y23	Z23	X24	Y24	Z24	X25	Y25	Z25	X26	Y26	Z26	X27	Y27	Z27	X28	Y28	Z28	X29	Y29	Z29	X30	Y30	Z30	X31	Y31	Z31	X32	Y32	Z32	X33	Y33	Z33	X34	Y34	Z34	X35	Y35	Z35	X36	Y36	Z36	X37	Y37	Z37	X38	Y38	Z38	X39	Y39	Z39	X40	Y40	Z40	X41	Y41	Z41	X42	Y42	Z42	X43	Y43	Z43	X44	Y44	Z44	X45	Y45	Z45	X46	Y46	Z46	X47	Y47	Z47	X48	Y48	Z48	X49	Y49	Z49	X50	Y50	Z50	X51	Y51	Z51	X52	Y52	Z52	X53	Y53	Z53	X54	Y54	Z54	X55	Y55	Z55	X56	Y56	Z56	X57	Y57	Z57	X58	Y58	Z58	X59	Y59	Z59	X60	Y60	Z60	X61	Y61	Z61	X62	Y62	Z62	X63	Y63	Z63	X64	Y64	Z64	

140	2.105	2.138026498493323	1.42358726157254	-0.4714327608846339	2.032072143062451	1.51993502053556	-0.5003853204155082	2.088488807447768	1.474493816712431	-0.3278411077593976	2.143515444355929	1.424416433741403	-0.3029373881255268	2.044141366603784	1.446666977283426	-0.3000665027211402	2.068541539307556	1.137255491472081	-0.2336261159350457	2.018463327566714	1.139125580688773	-0.3036938587508253	2.084786710376706	1.323197553736187	-0.2566996969032514	2.030130077722448	1.284956589030094	-0.2449879687651312	2.077741980836878	1.222172003748296	-0.2462807745519994	2.109081574786901	1.077251861859644	-0.3142172431830456	2.227878543043118	0.932171445438909	-0.315410675875462	2.18374049118738	0.915664108387508	-0.2591124583321278	2.102508692469695	0.9679343017506028	-0.3529887589026562	1.931725200143416	1.017635123354228	-0.4453561498821249	1.59351913423799	0.2866194350823588	-0.3683284622404401	1.701657473176331	0.07770550740867521	-0.3769464376787997	1.672409357552644	0.0807638572535922	-0.3023920739909089	2.045007212477194	0.8014587072258841	-0.2984733689584617	2.067914724222923	0.6974692632589754	-0.2978472585377585	1.984147591222566	0.5726601174332803	-0.2989375355981495	1.891326491837297	0.3337396413070324	-0.3500573070238513	1.781781270382794	0.3110779322121513	-0.3062549186581296	1.735819648281544	0.2471586870851148	-0.36698298083713	1.984997814816329	0.4510634807742313	-0.3009934898628936	1.995081219446338	0.4516352466316719	-0.4262211286625035	1.631062884807641	0.2196774147601514	-0.3053287704358537	1.634167395138669	0.2125103861709704	-0.4062843413611947	2.022576821761399	0.8863420102356511	-0.4176280127561643	1.997525876424918	0.4505545183448663	-0.3693909836877787	2.045701102582934	1.133418206352152	-0.2665572061571678	1.615179198257374	0.2199913240036673	-0.3632929880342003	2.096963657632937	1.434839700863664	-0.3015925218578419	2.076114939520265	1.474807419077062	-0.6757280314050644	2.12981777119707	1.413660363266262	-0.6937106392450378	2.022493767224753	1.437690950291647	-0.6906100830083003	1.983087103887093	1.150784325889108	-0.7699666978147951	1.948066316779311	1.147792460590944	-0.6915603151830134	2.027800761361035	1.353021166828211	-0.7464436651652614	1.95953249386425	1.292288235335939	-0.731034195114288	2.007531518419019	1.218782482704315	-0.7591751939542474	2.004593487364489	1.063518783413406	-0.7188383682936497	2.029641202096146	0.8788788506467844	-0.7413274053800729	1.972145418901438	0.889557054570984	-0.7882746171709075	2.124770824156255	0.9888906522759705	-0.6086186904358498	1.942146901038418	1.026794880169752	-0.5376009449745989	2.094768413979245	0.05844889707790464	-0.5568732516953345	2.335720612067658	0.04941865547277984	-0.5451939488142602	2.307606882023675	0.02534329835210977	-0.63073186850202	2.064971272645978	0.8376920067662919	-0.681371580321686	2.16196543092471	0.7345651496339152	-0.6652143644012728	2.124865921686288	0.599707175896989	-0.658373097596289	2.215575849851569	0.327334007858068	-0.5928034959687127	2.181378083144049	0.2662880167457817	-0.634121356037306	2.205833959011923	0.1892043573802638	-0.5788046564356888	2.190103148225115	0.4981383777773652	-0.6366388576396297	2.194757765354463	0.4995353965721026	-0.5178650366347199	2.173737259497627	0.06222243967571711	-0.620911610436289	2.180623269798322	0.06483202127809168	-0.51992247968424	2.035983971601266	0.9010677265855692	-0.5758520220872108	2.196656588052431	0.4970220155846327	-0.5747882809867437	1.965410351425462	1.14263508296478	-0.7324532418651445	2.163866412237248	0.05187006794095311	-0.5625366557634474	2.083265984474078	1.424083630388522	-0.6923657729773529	
141	2.11	2.144178246782416	1.424376847218201	-0.4718600186157557	2.038258910871686	1.520672490789832	-0.501112541664406	2.094243183420811	1.475295986215716	-0.3284105370259008	2.149225824707316	1.42524798944195	-0.3033510581337778	2.049835084177985	1.447456723126027	-0.3007455168865279	2.074175288422035	1.13785641812048	-0.2351240414570191	2.024516580087029	1.139856252041161	-0.3054861509970673	2.090347045555244	1.323877177065165	-0.2576073186571653	2.03566464218549	1.28554394610619	-0.24632540318639	2.083354882720116	1.222816488653885	-0.2474983709210437	2.114585179796565	1.077038648891016	-0.3152599856924598	2.231596411746005	0.9305093255089243	-0.3152471741807458	2.18683648934902	0.9146699519302481	-0.2592488466311136	2.108903300633576	0.9687470361080751	-0.3536644828061101	1.938099253906564	1.01825647052146	-0.446096627438447	1.605387470212207	0.2931476249674731	-0.367987173976731	1.708173266960659	0.08158495144391288	-0.3774483675269245	1.679121701162873	0.08514088368496951	-0.302839247529362	2.053396447598019	0.8027404942600718	-0.2991890446766498	2.077951632695864	0.699128092499959	-0.2985081250793071	1.996169115266537	0.5730060460718895	-0.2990497934513323	1.903196608803426	0.3355381648845162	-0.3500967188177138	1.793370067019524	0.3144595564692086	-0.306208442294005	1.7463873448973	0.2513309417864168	-0.3669821205603593	1.998937458843518	0.4514350938613942	-0.30092908250951	2.008470038586146	0.4519722213076193	-0.4262000085139533	1.641295398861193	0.2253341982690645	-0.3052545441688632	1.644183462416775	0.2182747090495645	-0.4062241152529966	2.029109626158813	0.8870728234102556	-0.4183709865158131	2.011119744130649	0.4507723164294707	-0.3693711323329251	2.051537369023883	1.134080912105478	-0.2682017857835915	1.62535604380459	0.2259749659606425	-0.3632007859484103	2.102666232306351	1.435651670736256	-0.3021304923365036	2.082779732521061	1.47552248909505	-0.6763287179068247	2.136555542959634	1.41439416965804	-0.6941562674760773	2.029213543187958	1.438379602036843	-0.6913422829290473	1.991524637429573	1.151064057919255	-0.7711880660743862	1.955844218764713	1.147995212451782	-0.6930826402935262	2.035266798129237	1.353486265596883	-0.7474339658178905	1.967099922546839	1.292505228867051	-0.7325649606528453	2.015617267978105	1.219162389482969	-0.7602382862073425	2.013115555402315	1.06401085442564	-0.7198006951963946	2.03942475951643	0.8794924742673651	-0.7418425357970252	1.982237736233794	0.8897703256531788	-0.7892539263916446	2.131260970740962	0.9898227963748332	-0.6092762586435791	1.948553332597639	1.027462447030205	-0.538333157356686	2.095126852809657	0.05891211552573834	-0.5570480695476296	2.336038399545359	0.04904750814150471	-0.5452062236847803	2.307897317507614	0.02503612570163797	-0.6307531310342267	2.07132780149507	0.8382926406135971	-0.6820441616917422	2.167728890925209	0.7346349804697406	-0.6657349471587438	2.129872664038734	0.5999881071434123	-0.6588811024696928	2.218446779224708	0.3270559466878096	-0.5930303609905943	2.183774592219677	0.2662907026851309	-0.6343666695932516	2.207436601462337	0.1890296635729034	-0.5789522417394996	2.194519670905648	0.4980672747475485	-0.6370315694925279	2.199047345317304	0.4994873459369966	-0.5182531150469554	2.174273125666517	0.06231170138196501	-0.6210276864805824	2.181001990906058	0.06493155832598324	-0.5200282295204771	2.042573609434249	0.901871959663492	-0.5765833192783221	2.201023986081373	0.4969202670167726	-0.5751679601904345	1.97355782847111	1.142874531632949	-0.7338214693579084	2.164205234363826	0.05209044911127514	-0.5626632784396807	2.08999595055867	1.424797850952346	-0.692935701678803	
142	2.115	2.15029722502825	1.425207180603782	-0.4722734737308633	2.044421228018452	1.521461817623032	-0.5018164069777545	2.099976384840557	1.47613645826061	-0.3289624666248763	2.154911156018661	1.426111598727699	-0.3037522573719977	2.055506613020258	1.448287491599224	-0.3014064938205463	2.079774987226612	1.138517818746854	-0.2365168484586188	2.030508949275711	1.140636981597923	-0.3071509744995651	2.095887782700647	1.324607449499824	-0.2584661853284629	2.041181142626462	1.286193898276545	-0.2475819736001693	2.08893940994405	1.223516125929404	-0.2486372320564909	2.120022393076956	1.076892267006163	-0.3162004583574646	2.23521892097237	0.928936706422698	-0.3150243501365139	2.18985778103158	0.9137688178355308	-0.2593246981108122	2.115167632450031	0.969643598000941	-0.3542687321207664	1.94438678201853	1.018952644919906	-0.4468507328197486	1.61753516069347	0.2990197490708164	-0.3677349875650485	1.715514606053258	0.08522554552122855	-0.377994901825438	1.686658668231573	0.08920578154961004	-0.3033313130434475	2.061659741290274	0.8040881818669853	-0.2998728764574621	2.087864139184653	0.700880651225899	-0.2991759437858214	2.008098474464485	0.5734723285448379	-0.2992228506697391	1.915246266962075	0.3373270155947958	-0.3502287030425336	1.805203200477217	0.3176120851125596	-0.3062491297857565	1.757338373986937	0.2551877600652017	-0.3670619587549969	2.012794067360513	0.4519586172250283	-0.3009724916419544	2.021786059043011	0.4524932167851122	-0.4262833920989618	1.651985094833135	0.2304675564598882	-0.3052554899383443	1.65467108894626	0.2235187896755955	-0.4062383184779378	2.035528577638315	0.8878765169813393	-0.4190483935783362	2.02463565473682	0.45117817980275	-0.369456029644509	2.057326332007412	1.13479911780817	-0.2697297398151198	1.635992200179212	0.2313999529534925	-0.3631830180799456	2.108345097851059	1.436499895743365	-0.3026533844363203	2.089407604340816	1.476293907358255	-0.6769090123558353	2.143249547253061	1.415180283046219	-0.6945867060980735	2.035892640814787	1.439130247347466	-0.6920532814625059	1.999962239342836	1.151397833037805	-0.7723904491876842	1.963616066720107	1.148245226191499	-0.6945959478989449	2.042708261966064	1.354005719961734	-0.7484070013773572	1.974652414907969	1.292770038449782	-0.7340860351780664	2.023693595034474	1.219597265169523	-0.7612820964027507	2.021650197971039	1.064567908622713	-0.7207370901087531	2.049266955515205	0.8801849705393168	-0.7423078207615809	1.992397378389655	0.8900459942609823	-0.7901872654938984	2.137726740659488	0.9907539197394323	-0.6098599565067544	1.954911641369951	1.028173931189771	-0.539077683497297	2.095462870395407	0.05933461195641845	-0.5572085382312068	2.336335173168439	0.04871571656080472	-0.5452216303619163	2.308169110860202	0.02476784074080417	-0.6307781176655787	2.077615024302007	0.838905623599062	-0.6826503325011892	2.173371942441164	0.73467711545692	-0.6661851647992025	2.134699429086578	0.6002626306195913	-0.6593271348770512	2.221154494445135	0.3267694526576683	-0.5932181377498428	2.186035988129031	0.2662766505239333	-0.6345772630240267	2.208945845760941	0.188850415256801	-0.5790774055818326	2.198706564048093	0.4979637236943195	-0.6373609340141376	2.203098442830271	0.4994017712640813	-0.5185775972274075	2.174775726766756	0.06239400747355789	-0.6211342839410893	2.181356285512035	0.0650174026196394	-0.52012514757926	2.049115155259521	0.9026965984923832	-0.5772482848873599	2.205148433699175	0.4967866784361165	-0.5754852484737445	1.98170311663749	1.143164791986861	-0.7351754174370536	2.164522747487417	0.05229403536765054	-0.5627809846463099	2.09668348908546	1.425568580061885	-0.693487833162396	
143	2.12	2.156381798546069	1.42607635630047	-0.4726713313412266	2.050556817887474	1.522300691797665	-0.5024944351717802	2.105686053016364	1.47701167349135	-0.3294946646478522	2.160569389191117	1.427003819901717	-0.3041391071517365	2.061153701118344	1.449155174121706	-0.3020475834851949	2.085330560860029	1.139236091998076	-0.2378016875785444	2.036431182430092	1.141464455933086	-0.3086867938525438	2.101403477757416	1.325384825197708	-0.2592739187474829	2.046672707513411	1.28690369999373	-0.2487558750952662	2.094487649306842	1.224267298978773	-0.2496947164940773	2.125387109970597	1.076812610971225	-0.3170364253581056	2.238750164640631	0.9274606395816618	-0.3147391105769367	2.192809350820636	0.9129650168858003	-0.2593363340678065	2.121317576353849	0.9706270664740448	-0.3548113532493543	1.950593560020058	1.01971919336865	-0.4476131913745406	1.629859866792009	0.3042934324978234	-0.367581894127441	1.7237200798324	0.08869553640765507	-0.3785821956937629	1.695053036681937	0.09301688565509841	-0.3038648249296105	2.069812156992451	0.8054999535365091	-0.3005261260793137	2.097666576683284	0.7027253036602502	-0.2998529160928876	2.019949369841745	0.5740578070386546	-0.2994589227062948	1.927457859683362	0.3391147615160142	-0.3504608001439869	1.81725251943664	0.3205611019206832	-0.3063824321401317	1.768626473286843	0.2587624777840606	-0.3672304052408288	2.02658048435668	0.4526331865589602	-0.3011267765796625	2.035038918805994	0.45319847722962	-0.4264746876814359	1.663075290985914	0.2351255400549282	-0.3053378808780586	1.665568401675928	0.2282953658780494	-0.4063337456639794	2.041846329673335	0.8887522075184602	-0.4196609295808541	2.038085502693876	0.4517697118609318	-0.3696494061960541	2.063058202917919	1.135569335620176	-0.2711388137210946	1.647027587039924	0.2363207619460093	-0.3632454209909119	2.113998110113427	1.437380621786071	-0.3031593328901451	2.095997037432681	1.477121279900145	-0.6774668381919888	2.14989875693874	1.416018817332341	-0.6950003618424911	2.042529813820146	1.439942279889929	-0.6927415162826264	2.008394499146367	1.15178675109908	-0.7735688156860644	1.971379925629772	1.148543222412708	-0.6960938617070038	2.050121543585008	1.354580046319612	-0.7493589573888784	1.982186958103534	1.293083459286967	-0.7355909161082138	2.031755790214199	1.220087948488775	-0.7623024142009238	2.03019303919622	1.065190903321536	-0.7216432266492029	2.059160976606921	0.8809582095367166	-0.7427198183417451	2.002616397655257	0.8903866114198513	-0.7910690235912868	2.144159647440033	0.9916830771231708	-0.6103819251747515	1.96121875287302	1.028923509209265	-0.5398303322045431	2.095778616187227	0.05972197528778526	-0.5573552429936497	2.336613826391125	0.04842128325460942	-0.5452470214690598	2.30842215560869	0.02453659073359537	-0.630812736002714	2.083828827020124	0.8395291295930343	-0.683193388628566	2.178895721747118	0.7346954478304208	-0.6665724463098556	2.139354786410559	0.6005337383549811	-0.6597168105992907	2.223710605181584	0.3264790510674436	-0.593373880772611	2.188170325637553	0.2662506331262961	-0.6347585644315402	2.210368657684906	0.1886699493498308	-0.5791852865045442	2.202678044829341	0.4978348303313014	-0.6376353047989866	2.206930388356545	0.4992864148401888	-0.5188470555687693	2.175246160693336	0.06247208517739905	-0.6212341913920392	2.181689844471668	0.06509270529539751	-0.5202161589739744	2.05560611747799	0.9035382567006479	-0.5778490344016363	2.209047710358051	0.4966285682264177	-0.5757486792122447	1.989842440419542	1.143506793654394	-0.7365093966832454	2.16482096159484	0.05248415694843872	-0.5628921218994457	2.10332747786105	1.426395619216695	-0.6940205875808998	
